<?xml version="1.0" standalone="no"?>
<!DOCTYPE svg PUBLIC "-//W3C//DTD SVG 20010904//EN"
 "http://www.w3.org/TR/2001/REC-SVG-20010904/DTD/svg10.dtd">
<svg version="1.0" xmlns="http://www.w3.org/2000/svg"
 width="275.000000pt" height="183.000000pt" viewBox="0 0 275.000000 183.000000"
 preserveAspectRatio="xMidYMid meet">

<g transform="translate(0.000000,183.000000) scale(0.100000,-0.100000)"
fill="#000000" stroke="none">
<path d="M1105 1729 c-166 -25 -317 -82 -397 -149 -20 -16 -46 -51 -58 -76
-20 -41 -22 -55 -16 -132 4 -48 13 -116 21 -152 7 -36 13 -65 12 -66 -1 -1
-30 -16 -65 -34 -90 -48 -184 -138 -221 -212 -107 -212 52 -421 408 -538 191
-62 289 -75 571 -75 293 0 377 11 575 76 149 49 251 106 330 184 82 82 110
140 110 230 -1 84 -30 148 -98 217 l-44 44 29 34 c51 62 72 175 47 263 -13 47
-63 106 -106 123 -43 18 -107 18 -143 -1 l-29 -15 -11 40 c-24 88 -144 166
-335 216 -90 24 -121 27 -310 30 -115 1 -237 -1 -270 -7z m425 -29 c186 -24
354 -87 424 -159 38 -39 57 -85 47 -111 -5 -13 -23 -18 -33 -11 -2 2 -13 4
-26 7 -21 4 -23 1 -21 -28 2 -18 7 -38 11 -44 20 -27 -137 -98 -286 -130 -227
-48 -636 -25 -744 43 -38 24 -85 63 -76 63 4 0 -1 6 -12 14 -29 22 -26 97 5
130 72 76 238 123 467 133 118 4 173 2 252 -11 56 -10 107 -14 113 -10 6 3 14
2 18 -3 7 -10 158 -63 179 -63 29 0 -15 28 -54 34 -22 4 -58 14 -80 22 l-39
15 43 -5 c30 -3 42 0 42 9 0 7 6 15 13 18 6 2 -4 4 -23 4 -28 1 -31 -1 -15 -7
14 -6 5 -9 -32 -9 -43 -1 -51 2 -46 15 3 8 12 13 19 10 8 -3 11 0 8 8 -10 26
-213 55 -396 58 -92 1 -119 3 -88 8 69 11 246 11 330 0z m666 -249 c23 -10 54
-36 70 -57 27 -35 29 -43 29 -133 0 -74 -4 -104 -18 -130 -25 -45 -75 -93 -89
-85 -6 4 -8 3 -5 -3 8 -12 -58 -33 -99 -32 l-29 1 27 8 c15 4 40 18 57 29 16
12 35 20 43 18 7 -2 10 -2 5 1 -4 2 7 20 24 40 59 67 72 128 43 202 -22 55
-65 83 -125 84 -77 1 -101 -23 -116 -121 -42 -275 -188 -497 -388 -594 -106
-51 -172 -62 -320 -56 -187 8 -303 57 -416 174 -68 72 -98 112 -134 183 -62
122 -94 244 -109 410 l-6 65 19 -42 c59 -126 303 -217 616 -230 243 -9 443 24
594 99 66 34 151 109 151 134 0 18 74 54 110 54 14 0 44 -9 66 -19z m-232 -48
c4 -8 11 -11 18 -7 7 4 2 -5 -11 -19 -28 -30 -35 -28 -37 12 -1 29 21 39 30
14z m205 -73 c45 -24 51 -104 10 -161 -35 -49 -53 -54 -115 -28 -50 20 -55 24
-50 48 3 14 8 43 12 64 11 66 87 107 143 77z m-1465 -277 c42 -105 109 -204
195 -286 63 -61 69 -70 56 -84 -22 -21 -18 -56 9 -82 27 -26 142 -64 241 -82
86 -15 280 -6 365 16 94 25 207 82 236 120 27 36 34 88 16 122 -8 15 -9 24 -2
28 6 4 36 42 66 86 l56 79 52 0 c54 0 136 20 194 47 l33 16 46 -44 c89 -86
105 -172 52 -277 -75 -151 -277 -270 -561 -331 -557 -119 -1217 35 -1355 317
-55 113 -27 220 85 323 50 46 172 123 180 114 3 -2 19 -39 36 -82z m1356 72
c17 -9 30 -18 30 -21 0 -6 -36 -20 -77 -28 l-32 -7 11 35 c13 40 25 43 68 21z
m-250 -404 c0 -50 -58 -101 -157 -139 -105 -41 -188 -55 -313 -55 -229 1 -441
90 -365 153 12 10 20 9 39 -4 97 -63 328 -94 473 -63 91 20 187 65 255 121 57
47 68 45 68 -13z"/>
<path d="M1810 1590 c0 -4 9 -10 20 -13 11 -3 20 -2 20 3 0 4 -9 10 -20 13
-11 3 -20 2 -20 -3z"/>
<path d="M1902 1525 c-11 -13 -10 -15 7 -15 11 0 22 -8 24 -17 3 -10 4 -5 3
11 -3 34 -15 42 -34 21z"/>
<path d="M1838 1498 c9 -9 15 -9 24 0 9 9 7 12 -12 12 -19 0 -21 -3 -12 -12z"/>
<path d="M1946 1464 c-3 -9 -11 -12 -18 -8 -10 5 -10 4 -2 -5 9 -10 17 -10 33
-2 12 7 21 16 21 21 0 16 -27 11 -34 -6z"/>
<path d="M1886 1451 c-4 -7 -5 -15 -2 -18 9 -9 19 4 14 18 -4 11 -6 11 -12 0z"/>
<path d="M2210 1090 c-9 -6 -10 -10 -3 -10 6 0 15 5 18 10 8 12 4 12 -15 0z"/>
<path d="M1950 1390 c0 -5 5 -10 11 -10 5 0 7 5 4 10 -3 6 -8 10 -11 10 -2 0
-4 -4 -4 -10z"/>
<path d="M0 95 l0 -95 1375 0 1375 0 0 95 0 95 -1375 0 -1375 0 0 -95z m266
26 c-18 -7 -18 -8 -3 -14 26 -10 21 -37 -5 -36 -19 1 -19 2 -5 6 17 4 17 5 1
17 -20 15 -11 36 14 35 14 0 14 -2 -2 -8z m55 -19 c0 -13 3 -12 11 6 16 33 28
27 15 -8 -14 -37 -24 -38 -37 -4 -13 32 -12 37 0 29 6 -3 10 -14 11 -23z m81
17 c-25 -9 -26 -29 -2 -37 7 -3 10 0 6 7 -4 6 -2 11 3 11 6 0 11 -7 11 -15 0
-8 -9 -15 -20 -15 -11 0 -23 7 -26 15 -10 24 4 45 28 44 l23 0 -23 -10z m87
-28 c-6 -18 -14 -30 -17 -27 -2 3 1 19 8 36 16 40 23 33 9 -9z m81 9 c0 -22
-5 -30 -17 -29 -11 0 -13 3 -5 6 6 2 12 16 12 29 0 13 2 24 5 24 3 0 5 -13 5
-30z m70 17 c0 -14 -36 -48 -43 -41 -2 2 -2 16 1 29 5 26 42 37 42 12z m52 2
c-25 -9 -26 -29 -2 -37 7 -3 10 0 6 7 -4 6 -2 11 3 11 6 0 11 -7 11 -15 0 -8
-9 -15 -20 -15 -11 0 -23 7 -26 15 -10 24 4 45 28 44 l23 0 -23 -10z m84 -26
c-18 -33 -21 -26 -6 13 6 15 13 24 16 21 3 -3 -1 -18 -10 -34z m104 17 c0 -11
-6 -20 -14 -20 -8 0 -17 -6 -19 -12 -3 -7 -6 2 -6 20 -1 26 3 32 19 32 13 0
20 -7 20 -20z m46 3 c13 -17 13 -17 14 0 0 30 20 18 20 -13 0 -33 -11 -38 -31
-14 -12 14 -14 14 -20 -3 -6 -13 -8 -10 -8 15 -1 36 6 40 25 15z m87 10 c-26
-5 -32 -43 -7 -43 8 0 12 5 9 10 -3 6 -1 10 4 10 6 0 11 -7 11 -15 0 -9 -9
-15 -24 -15 -13 0 -26 7 -30 15 -10 26 5 45 33 44 23 -2 24 -2 4 -6z m201 -28
c2 -14 -1 -24 -7 -22 -12 4 -19 36 -10 50 8 12 14 2 17 -28z m52 15 c8 0 14
-9 14 -20 0 -11 -5 -20 -11 -20 -5 0 -8 4 -4 9 3 5 1 12 -4 15 -5 4 -12 -2
-14 -11 -3 -10 -5 -2 -5 17 0 19 2 29 5 23 2 -7 11 -13 19 -13z m97 13 c-7 -2
-14 -17 -14 -31 l-2 -27 -4 25 c-3 14 -10 28 -17 32 -6 4 3 7 19 7 17 0 24 -3
18 -6z m531 -27 c4 -29 -9 -36 -16 -8 -5 19 1 46 9 39 2 -3 6 -17 7 -31z m98
9 c6 -29 2 -35 -24 -35 -13 0 -18 8 -18 30 0 39 35 43 42 5z m148 9 c0 -8 4
-13 8 -10 4 2 8 -3 9 -13 1 -10 -6 -17 -18 -18 -15 -1 -19 5 -19 28 0 16 5 29
10 29 6 0 10 -7 10 -16z m370 -14 c0 -23 -5 -30 -19 -30 -29 0 -36 19 -15 40
27 27 34 24 34 -10z m-1410 -22 c0 -5 -4 -8 -10 -8 -5 0 -10 10 -10 23 0 18 2
19 10 7 5 -8 10 -18 10 -22z m40 22 c0 -3 -5 -12 -10 -20 -9 -13 -11 -13 -20
0 -15 22 -12 29 10 27 11 -1 20 -4 20 -7z m27 -22 c-3 -7 -5 -2 -5 12 0 14 2
19 5 13 2 -7 2 -19 0 -25z m236 12 c-7 -26 -23 -26 -23 0 0 11 6 20 14 20 9 0
12 -7 9 -20z m57 0 c0 -11 -7 -20 -15 -20 -8 0 -15 5 -15 11 0 5 6 7 13 3 8
-5 8 -2 -2 9 -12 15 -11 17 3 17 9 0 16 -8 16 -20z m63 0 c3 -11 1 -20 -4 -20
-5 0 -10 8 -10 18 -1 16 -2 16 -6 0 -6 -24 -23 -23 -23 2 0 13 7 20 19 20 10
0 21 -9 24 -20z m42 10 c-3 -5 -10 -10 -16 -10 -5 0 -9 5 -9 10 0 6 7 10 16
10 8 0 12 -4 9 -10z m71 -2 c7 -10 -20 -38 -38 -38 -4 0 -8 11 -8 25 0 18 5
25 19 25 11 0 23 -5 27 -12z m54 -8 c0 -13 -7 -20 -20 -20 -11 0 -20 5 -20 11
0 6 7 8 16 5 14 -5 15 -4 4 9 -10 12 -10 15 4 15 9 0 16 -8 16 -20z m44 12
c-6 -4 -14 -14 -17 -22 -4 -10 -6 -8 -6 8 -1 15 5 22 17 22 10 0 13 -3 6 -8z
m61 -2 c3 -5 -2 -10 -12 -10 -15 0 -16 -2 -3 -10 13 -8 13 -10 -2 -10 -9 0
-20 5 -23 10 -8 13 3 30 20 30 8 0 17 -4 20 -10z m58 -5 c4 -8 2 -17 -3 -20
-6 -4 -11 2 -11 12 -1 17 -2 17 -6 1 -6 -24 -23 -23 -23 2 0 24 35 28 43 5z
m197 -5 c0 -13 -7 -20 -20 -20 -11 0 -20 5 -20 11 0 6 7 9 15 5 8 -3 15 -1 15
3 0 5 -6 12 -12 14 -8 3 -6 6 5 6 11 1 17 -6 17 -19z m48 13 c-10 -2 -18 -8
-18 -13 0 -5 8 -11 18 -13 13 -4 11 -5 -5 -6 -17 -1 -23 5 -23 19 0 14 6 20
23 19 16 -1 18 -2 5 -6z m120 -23 c0 -23 -4 -30 -19 -30 -14 0 -19 7 -19 30 0
23 5 30 18 30 14 0 19 -8 20 -30z m46 22 c-6 -4 -14 -14 -17 -22 -4 -10 -6 -8
-6 8 -1 15 5 22 17 22 10 0 13 -3 6 -8z m66 -7 c0 -9 -7 -18 -16 -22 -18 -7
-39 11 -30 26 11 17 46 13 46 -4z m39 -2 c1 24 21 22 21 -3 0 -13 -7 -20 -20
-20 -14 0 -20 6 -19 23 0 21 1 21 9 2 7 -17 9 -17 9 -2z m81 -3 c0 -25 -20
-27 -21 -2 0 14 -2 14 -9 -3 -8 -19 -9 -19 -9 3 -1 16 5 22 19 22 13 0 20 -7
20 -20z m-875 -10 c-3 -5 -14 -10 -23 -10 -15 0 -15 2 -2 10 20 13 33 13 25 0z"/>
<path d="M610 110 c0 -5 5 -10 10 -10 6 0 10 5 10 10 0 6 -4 10 -10 10 -5 0
-10 -4 -10 -10z"/>
<path d="M850 110 c0 -5 5 -10 10 -10 6 0 10 5 10 10 0 6 -4 10 -10 10 -5 0
-10 -4 -10 -10z"/>
<path d="M2300 89 c0 -5 5 -7 10 -4 6 3 10 8 10 11 0 2 -4 4 -10 4 -5 0 -10
-5 -10 -11z"/>
</g>
</svg>
